<mxfile host="Electron" agent="Mozilla/5.0 (Macintosh; Intel Mac OS X 10_15_7) AppleWebKit/537.36 (KHTML, like Gecko) draw.io/26.1.1 Chrome/132.0.6834.210 Electron/34.3.3 Safari/537.36" version="26.1.1" pages="2">
  <diagram name="main" id="vdV72FHW6scpRiuXRKxx">
    <mxGraphModel dx="799" dy="661" grid="1" gridSize="10" guides="1" tooltips="1" connect="1" arrows="1" fold="1" page="1" pageScale="1" pageWidth="1100" pageHeight="850" math="0" shadow="0">
      <root>
        <mxCell id="0" />
        <mxCell id="1" parent="0" />
        <mxCell id="z_RlsAV90lugBiamIVYU-6" style="edgeStyle=orthogonalEdgeStyle;rounded=1;orthogonalLoop=1;jettySize=auto;html=1;exitX=1;exitY=0.5;exitDx=0;exitDy=0;exitPerimeter=0;strokeWidth=2;curved=0;entryX=0;entryY=0.5;entryDx=0;entryDy=0;entryPerimeter=0;" parent="1" source="z_RlsAV90lugBiamIVYU-1" target="z_RlsAV90lugBiamIVYU-8" edge="1">
          <mxGeometry relative="1" as="geometry" />
        </mxCell>
        <mxCell id="z_RlsAV90lugBiamIVYU-1" value="" style="rhombus;whiteSpace=wrap;html=1;rounded=1;fontStyle=1;glass=0;sketch=0;fontSize=12;points=[[0,0.5,0,0,0],[0.5,0,0,0,0],[0.5,1,0,0,0],[1,0.5,0,0,0]];shadow=1;fontFamily=Helvetica;fontColor=default;" parent="1" vertex="1">
          <mxGeometry x="40" y="120" width="40" height="40" as="geometry" />
        </mxCell>
        <mxCell id="z_RlsAV90lugBiamIVYU-2" value="Larson" style="rounded=1;whiteSpace=wrap;html=1;container=1;recursiveResize=0;verticalAlign=top;arcSize=6;fontStyle=1;autosize=0;points=[];absoluteArcSize=1;shadow=1;strokeColor=#6c8ebf;fillColor=#dae8fc;fontFamily=Helvetica;fontSize=11;gradientColor=#0050EF;fontColor=default;" parent="1" vertex="1">
          <mxGeometry x="320" y="110" width="90" height="80" as="geometry">
            <mxRectangle x="-98" y="-1230" width="99" height="26" as="alternateBounds" />
          </mxGeometry>
        </mxCell>
        <mxCell id="z_RlsAV90lugBiamIVYU-3" value="tick" style="rounded=1;whiteSpace=wrap;html=1;sketch=0;points=[[0,0.5,0,0,0],[1,0.5,0,0,0]];arcSize=50;fontFamily=Helvetica;fontSize=11;fontColor=default;" parent="z_RlsAV90lugBiamIVYU-2" vertex="1">
          <mxGeometry x="-16.75" y="27.5" width="36.75" height="25" as="geometry" />
        </mxCell>
        <mxCell id="z_RlsAV90lugBiamIVYU-7" value="Divider" style="rounded=1;whiteSpace=wrap;html=1;container=1;recursiveResize=0;verticalAlign=top;arcSize=6;fontStyle=1;autosize=0;points=[];absoluteArcSize=1;shadow=1;strokeColor=#6c8ebf;fillColor=#dae8fc;fontFamily=Helvetica;fontSize=11;gradientColor=#0050EF;fontColor=default;" parent="1" vertex="1">
          <mxGeometry x="160" y="100" width="90" height="100" as="geometry">
            <mxRectangle x="-98" y="-1230" width="99" height="26" as="alternateBounds" />
          </mxGeometry>
        </mxCell>
        <mxCell id="z_RlsAV90lugBiamIVYU-8" value="" style="rounded=1;whiteSpace=wrap;html=1;sketch=0;points=[[0,0.5,0,0,0],[1,0.5,0,0,0]];arcSize=50;fontFamily=Helvetica;fontSize=11;fontColor=default;" parent="z_RlsAV90lugBiamIVYU-7" vertex="1">
          <mxGeometry x="-16.75" y="27.5" width="36.75" height="25" as="geometry" />
        </mxCell>
        <mxCell id="9XuPy-yzw9BXAMB755ca-12" value="" style="rounded=1;whiteSpace=wrap;html=1;sketch=0;points=[[0,0.5,0,0,0],[1,0.5,0,0,0]];fillColor=#1ba1e2;fontColor=#ffffff;strokeColor=#006EAF;arcSize=50;fontFamily=Helvetica;fontSize=11;" parent="z_RlsAV90lugBiamIVYU-7" vertex="1">
          <mxGeometry x="70" y="37.5" width="36" height="25" as="geometry" />
        </mxCell>
        <mxCell id="ZWu5ie66i4GKL29yOKYd-1" style="edgeStyle=orthogonalEdgeStyle;rounded=1;orthogonalLoop=1;jettySize=auto;html=1;exitX=1;exitY=0.5;exitDx=0;exitDy=0;exitPerimeter=0;entryX=0;entryY=0.5;entryDx=0;entryDy=0;entryPerimeter=0;curved=0;strokeWidth=2;" parent="1" source="9XuPy-yzw9BXAMB755ca-12" target="z_RlsAV90lugBiamIVYU-3" edge="1">
          <mxGeometry relative="1" as="geometry" />
        </mxCell>
      </root>
    </mxGraphModel>
  </diagram>
  <diagram name="Larson" id="JZWW65h0xSYiLv_BeMSM">
    <mxGraphModel dx="799" dy="661" grid="1" gridSize="10" guides="1" tooltips="1" connect="1" arrows="1" fold="1" page="1" pageScale="1" pageWidth="1100" pageHeight="850" math="0" shadow="0">
      <root>
        <mxCell id="q5L2Nz16qo5Y1Yb_iNLw-0" />
        <mxCell id="q5L2Nz16qo5Y1Yb_iNLw-1" parent="q5L2Nz16qo5Y1Yb_iNLw-0" />
        <mxCell id="q5L2Nz16qo5Y1Yb_iNLw-2" style="edgeStyle=orthogonalEdgeStyle;rounded=1;orthogonalLoop=1;jettySize=auto;html=1;exitX=1;exitY=0.5;exitDx=0;exitDy=0;exitPerimeter=0;strokeWidth=2;curved=0;entryX=0;entryY=0.5;entryDx=0;entryDy=0;entryPerimeter=0;" parent="q5L2Nz16qo5Y1Yb_iNLw-1" source="q5L2Nz16qo5Y1Yb_iNLw-3" target="q5L2Nz16qo5Y1Yb_iNLw-10" edge="1">
          <mxGeometry relative="1" as="geometry">
            <mxPoint x="143.25" y="110" as="targetPoint" />
          </mxGeometry>
        </mxCell>
        <mxCell id="q5L2Nz16qo5Y1Yb_iNLw-3" value="tick" style="rhombus;whiteSpace=wrap;html=1;rounded=1;fontStyle=1;glass=0;sketch=0;fontSize=12;points=[[0,0.5,0,0,0],[0.5,0,0,0,0],[0.5,1,0,0,0],[1,0.5,0,0,0]];shadow=1;fontFamily=Helvetica;fontColor=default;" parent="q5L2Nz16qo5Y1Yb_iNLw-1" vertex="1">
          <mxGeometry x="40" y="90" width="40" height="40" as="geometry" />
        </mxCell>
        <mxCell id="q5L2Nz16qo5Y1Yb_iNLw-9" value="Count" style="rounded=1;whiteSpace=wrap;html=1;container=1;recursiveResize=0;verticalAlign=top;arcSize=6;fontStyle=1;autosize=0;points=[];absoluteArcSize=1;shadow=1;strokeColor=#6c8ebf;fillColor=#dae8fc;fontFamily=Helvetica;fontSize=11;gradientColor=#0050EF;fontColor=default;" parent="q5L2Nz16qo5Y1Yb_iNLw-1" vertex="1">
          <mxGeometry x="180" y="70" width="90" height="100" as="geometry">
            <mxRectangle x="-98" y="-1230" width="99" height="26" as="alternateBounds" />
          </mxGeometry>
        </mxCell>
        <mxCell id="q5L2Nz16qo5Y1Yb_iNLw-10" value="adv" style="rounded=1;whiteSpace=wrap;html=1;sketch=0;points=[[0,0.5,0,0,0],[1,0.5,0,0,0]];arcSize=50;fontFamily=Helvetica;fontSize=11;fontColor=default;" parent="q5L2Nz16qo5Y1Yb_iNLw-9" vertex="1">
          <mxGeometry x="-16.75" y="27.5" width="36.75" height="25" as="geometry" />
        </mxCell>
        <mxCell id="q5L2Nz16qo5Y1Yb_iNLw-11" value="" style="rounded=1;whiteSpace=wrap;html=1;sketch=0;points=[[0,0.5,0,0,0],[1,0.5,0,0,0]];fillColor=#1ba1e2;fontColor=#ffffff;strokeColor=#006EAF;arcSize=50;fontFamily=Helvetica;fontSize=11;" parent="q5L2Nz16qo5Y1Yb_iNLw-9" vertex="1">
          <mxGeometry x="70" y="27.5" width="36" height="25" as="geometry" />
        </mxCell>
        <mxCell id="q5L2Nz16qo5Y1Yb_iNLw-12" value="rev" style="rounded=1;whiteSpace=wrap;html=1;sketch=0;points=[[0,0.5,0,0,0],[1,0.5,0,0,0]];arcSize=50;fontFamily=Helvetica;fontSize=11;fontColor=default;" parent="q5L2Nz16qo5Y1Yb_iNLw-9" vertex="1">
          <mxGeometry x="-16.75" y="60" width="36.75" height="25" as="geometry" />
        </mxCell>
        <mxCell id="q5L2Nz16qo5Y1Yb_iNLw-14" value="Reverser" style="rounded=1;whiteSpace=wrap;html=1;container=1;recursiveResize=0;verticalAlign=top;arcSize=6;fontStyle=1;autosize=0;points=[];absoluteArcSize=1;shadow=1;strokeColor=#6c8ebf;fillColor=#dae8fc;fontFamily=Helvetica;fontSize=11;gradientColor=#0050EF;fontColor=default;" parent="q5L2Nz16qo5Y1Yb_iNLw-1" vertex="1">
          <mxGeometry x="310" y="250" width="100" height="90" as="geometry">
            <mxRectangle x="-98" y="-1230" width="99" height="26" as="alternateBounds" />
          </mxGeometry>
        </mxCell>
        <mxCell id="q5L2Nz16qo5Y1Yb_iNLw-15" value="J" style="rounded=1;whiteSpace=wrap;html=1;sketch=0;points=[[0,0.5,0,0,0],[1,0.5,0,0,0]];arcSize=50;fontFamily=Helvetica;fontSize=11;fontColor=default;" parent="q5L2Nz16qo5Y1Yb_iNLw-14" vertex="1">
          <mxGeometry x="70" y="27.5" width="36.75" height="25" as="geometry" />
        </mxCell>
        <mxCell id="q5L2Nz16qo5Y1Yb_iNLw-16" value="" style="rounded=1;whiteSpace=wrap;html=1;sketch=0;points=[[0,0.5,0,0,0],[1,0.5,0,0,0]];fillColor=#1ba1e2;fontColor=#ffffff;strokeColor=#006EAF;arcSize=50;fontFamily=Helvetica;fontSize=11;" parent="q5L2Nz16qo5Y1Yb_iNLw-14" vertex="1">
          <mxGeometry x="-10" y="27.5" width="36" height="25" as="geometry" />
        </mxCell>
        <mxCell id="q5L2Nz16qo5Y1Yb_iNLw-17" value="K" style="rounded=1;whiteSpace=wrap;html=1;sketch=0;points=[[0,0.5,0,0,0],[1,0.5,0,0,0]];arcSize=50;fontFamily=Helvetica;fontSize=11;fontColor=default;" parent="q5L2Nz16qo5Y1Yb_iNLw-14" vertex="1">
          <mxGeometry x="70" y="55" width="36.75" height="25" as="geometry" />
        </mxCell>
        <mxCell id="q5L2Nz16qo5Y1Yb_iNLw-18" style="edgeStyle=orthogonalEdgeStyle;rounded=1;orthogonalLoop=1;jettySize=auto;html=1;exitX=0;exitY=0.5;exitDx=0;exitDy=0;exitPerimeter=0;entryX=0;entryY=0.5;entryDx=0;entryDy=0;entryPerimeter=0;curved=0;strokeWidth=2;" parent="q5L2Nz16qo5Y1Yb_iNLw-1" source="q5L2Nz16qo5Y1Yb_iNLw-16" target="q5L2Nz16qo5Y1Yb_iNLw-12" edge="1">
          <mxGeometry relative="1" as="geometry">
            <Array as="points">
              <mxPoint x="130" y="290" />
              <mxPoint x="130" y="143" />
            </Array>
          </mxGeometry>
        </mxCell>
        <mxCell id="q5L2Nz16qo5Y1Yb_iNLw-19" value="Decode" style="rounded=1;whiteSpace=wrap;html=1;container=1;recursiveResize=0;verticalAlign=top;arcSize=6;fontStyle=1;autosize=0;points=[];absoluteArcSize=1;shadow=1;strokeColor=#6c8ebf;fillColor=#dae8fc;fontFamily=Helvetica;fontSize=11;gradientColor=#0050EF;fontColor=default;" parent="q5L2Nz16qo5Y1Yb_iNLw-1" vertex="1">
          <mxGeometry x="530" y="70" width="480" height="127.5" as="geometry">
            <mxRectangle x="-98" y="-1230" width="99" height="26" as="alternateBounds" />
          </mxGeometry>
        </mxCell>
        <mxCell id="q5L2Nz16qo5Y1Yb_iNLw-20" value="N" style="rounded=1;whiteSpace=wrap;html=1;sketch=0;points=[[0,0.5,0,0,0],[1,0.5,0,0,0]];arcSize=50;fontFamily=Helvetica;fontSize=11;fontColor=default;" parent="q5L2Nz16qo5Y1Yb_iNLw-19" vertex="1">
          <mxGeometry x="-16.75" y="27.5" width="36.75" height="25" as="geometry" />
        </mxCell>
        <mxCell id="q5L2Nz16qo5Y1Yb_iNLw-21" value="8" style="rounded=1;whiteSpace=wrap;html=1;sketch=0;points=[[0,0.5,0,0,0],[1,0.5,0,0,0]];fillColor=#1ba1e2;fontColor=#ffffff;strokeColor=#006EAF;arcSize=50;fontFamily=Helvetica;fontSize=11;" parent="q5L2Nz16qo5Y1Yb_iNLw-19" vertex="1">
          <mxGeometry x="388" y="100" width="36" height="25" as="geometry" />
        </mxCell>
        <mxCell id="q5L2Nz16qo5Y1Yb_iNLw-22" value="9" style="rounded=1;whiteSpace=wrap;html=1;sketch=0;points=[[0,0.5,0,0,0],[1,0.5,0,0,0]];fillColor=#1ba1e2;fontColor=#ffffff;strokeColor=#006EAF;arcSize=50;fontFamily=Helvetica;fontSize=11;" parent="q5L2Nz16qo5Y1Yb_iNLw-19" vertex="1">
          <mxGeometry x="430" y="100" width="36" height="25" as="geometry" />
        </mxCell>
        <mxCell id="q5L2Nz16qo5Y1Yb_iNLw-23" value="7" style="rounded=1;whiteSpace=wrap;html=1;sketch=0;points=[[0,0.5,0,0,0],[1,0.5,0,0,0]];fillColor=#1ba1e2;fontColor=#ffffff;strokeColor=#006EAF;arcSize=50;fontFamily=Helvetica;fontSize=11;" parent="q5L2Nz16qo5Y1Yb_iNLw-19" vertex="1">
          <mxGeometry x="340" y="100" width="36" height="25" as="geometry" />
        </mxCell>
        <mxCell id="q5L2Nz16qo5Y1Yb_iNLw-24" value="6" style="rounded=1;whiteSpace=wrap;html=1;sketch=0;points=[[0,0.5,0,0,0],[1,0.5,0,0,0]];fillColor=#1ba1e2;fontColor=#ffffff;strokeColor=#006EAF;arcSize=50;fontFamily=Helvetica;fontSize=11;" parent="q5L2Nz16qo5Y1Yb_iNLw-19" vertex="1">
          <mxGeometry x="300" y="100" width="36" height="25" as="geometry" />
        </mxCell>
        <mxCell id="q5L2Nz16qo5Y1Yb_iNLw-25" value="5" style="rounded=1;whiteSpace=wrap;html=1;sketch=0;points=[[0,0.5,0,0,0],[1,0.5,0,0,0]];fillColor=#1ba1e2;fontColor=#ffffff;strokeColor=#006EAF;arcSize=50;fontFamily=Helvetica;fontSize=11;" parent="q5L2Nz16qo5Y1Yb_iNLw-19" vertex="1">
          <mxGeometry x="254" y="100" width="36" height="25" as="geometry" />
        </mxCell>
        <mxCell id="q5L2Nz16qo5Y1Yb_iNLw-26" value="4" style="rounded=1;whiteSpace=wrap;html=1;sketch=0;points=[[0,0.5,0,0,0],[1,0.5,0,0,0]];fillColor=#1ba1e2;fontColor=#ffffff;strokeColor=#006EAF;arcSize=50;fontFamily=Helvetica;fontSize=11;" parent="q5L2Nz16qo5Y1Yb_iNLw-19" vertex="1">
          <mxGeometry x="210" y="100" width="36" height="25" as="geometry" />
        </mxCell>
        <mxCell id="q5L2Nz16qo5Y1Yb_iNLw-27" value="3" style="rounded=1;whiteSpace=wrap;html=1;sketch=0;points=[[0,0.5,0,0,0],[1,0.5,0,0,0]];fillColor=#1ba1e2;fontColor=#ffffff;strokeColor=#006EAF;arcSize=50;fontFamily=Helvetica;fontSize=11;" parent="q5L2Nz16qo5Y1Yb_iNLw-19" vertex="1">
          <mxGeometry x="164" y="102.5" width="36" height="25" as="geometry" />
        </mxCell>
        <mxCell id="q5L2Nz16qo5Y1Yb_iNLw-28" value="2" style="rounded=1;whiteSpace=wrap;html=1;sketch=0;points=[[0,0.5,0,0,0],[1,0.5,0,0,0]];fillColor=#1ba1e2;fontColor=#ffffff;strokeColor=#006EAF;arcSize=50;fontFamily=Helvetica;fontSize=11;" parent="q5L2Nz16qo5Y1Yb_iNLw-19" vertex="1">
          <mxGeometry x="120" y="102.5" width="36" height="25" as="geometry" />
        </mxCell>
        <mxCell id="q5L2Nz16qo5Y1Yb_iNLw-30" value="0" style="rounded=1;whiteSpace=wrap;html=1;sketch=0;points=[[0,0.5,0,0,0],[1,0.5,0,0,0]];fillColor=#1ba1e2;fontColor=#ffffff;strokeColor=#006EAF;arcSize=50;fontFamily=Helvetica;fontSize=11;" parent="q5L2Nz16qo5Y1Yb_iNLw-19" vertex="1">
          <mxGeometry x="27" y="102.5" width="36" height="25" as="geometry" />
        </mxCell>
        <mxCell id="q5L2Nz16qo5Y1Yb_iNLw-29" value="1" style="rounded=1;whiteSpace=wrap;html=1;sketch=0;points=[[0,0.5,0,0,0],[1,0.5,0,0,0]];fillColor=#1ba1e2;fontColor=#ffffff;strokeColor=#006EAF;arcSize=50;fontFamily=Helvetica;fontSize=11;" parent="q5L2Nz16qo5Y1Yb_iNLw-19" vertex="1">
          <mxGeometry x="74" y="102.5" width="36" height="25" as="geometry" />
        </mxCell>
        <mxCell id="q5L2Nz16qo5Y1Yb_iNLw-31" style="edgeStyle=orthogonalEdgeStyle;shape=connector;curved=0;rounded=1;orthogonalLoop=1;jettySize=auto;html=1;exitX=1;exitY=0.5;exitDx=0;exitDy=0;exitPerimeter=0;entryX=0;entryY=0.5;entryDx=0;entryDy=0;entryPerimeter=0;strokeColor=default;strokeWidth=2;align=center;verticalAlign=middle;fontFamily=Helvetica;fontSize=11;fontColor=default;labelBackgroundColor=default;endArrow=classic;" parent="q5L2Nz16qo5Y1Yb_iNLw-1" source="YJyth-n5b7h0G95jLWLj-23" target="q5L2Nz16qo5Y1Yb_iNLw-20" edge="1">
          <mxGeometry relative="1" as="geometry" />
        </mxCell>
        <mxCell id="q5L2Nz16qo5Y1Yb_iNLw-32" style="edgeStyle=orthogonalEdgeStyle;shape=connector;curved=0;rounded=1;orthogonalLoop=1;jettySize=auto;html=1;entryX=1;entryY=0.5;entryDx=0;entryDy=0;entryPerimeter=0;strokeColor=default;strokeWidth=2;align=center;verticalAlign=middle;fontFamily=Helvetica;fontSize=11;fontColor=default;labelBackgroundColor=default;endArrow=classic;exitX=0.528;exitY=0.92;exitDx=0;exitDy=0;exitPerimeter=0;" parent="q5L2Nz16qo5Y1Yb_iNLw-1" source="q5L2Nz16qo5Y1Yb_iNLw-30" target="q5L2Nz16qo5Y1Yb_iNLw-15" edge="1">
          <mxGeometry relative="1" as="geometry">
            <Array as="points">
              <mxPoint x="576" y="290" />
            </Array>
          </mxGeometry>
        </mxCell>
        <mxCell id="q5L2Nz16qo5Y1Yb_iNLw-33" style="edgeStyle=orthogonalEdgeStyle;shape=connector;curved=0;rounded=1;orthogonalLoop=1;jettySize=auto;html=1;entryX=1;entryY=0.5;entryDx=0;entryDy=0;entryPerimeter=0;strokeColor=default;strokeWidth=2;align=center;verticalAlign=middle;fontFamily=Helvetica;fontSize=11;fontColor=default;labelBackgroundColor=default;endArrow=classic;exitX=0.528;exitY=1.04;exitDx=0;exitDy=0;exitPerimeter=0;" parent="q5L2Nz16qo5Y1Yb_iNLw-1" source="q5L2Nz16qo5Y1Yb_iNLw-22" target="q5L2Nz16qo5Y1Yb_iNLw-17" edge="1">
          <mxGeometry relative="1" as="geometry" />
        </mxCell>
        <mxCell id="q5L2Nz16qo5Y1Yb_iNLw-34" value="@" style="rounded=1;sketch=0;container=1;recursiveResize=0;verticalAlign=top;arcSize=6;fontStyle=0;autosize=0;points=[];absoluteArcSize=1;shadow=0;strokeColor=#9673a6;fillColor=#e1d5e7;fontFamily=Helvetica;fontSize=11;dashed=1;opacity=30;align=right;labelBackgroundColor=none;" parent="q5L2Nz16qo5Y1Yb_iNLw-1" vertex="1">
          <mxGeometry x="1050" y="370" width="40" height="62.5" as="geometry">
            <mxRectangle x="-98" y="-1230" width="99" height="26" as="alternateBounds" />
          </mxGeometry>
        </mxCell>
        <mxCell id="q5L2Nz16qo5Y1Yb_iNLw-35" value="" style="rounded=1;whiteSpace=wrap;html=1;sketch=0;points=[[0,0.5,0,0,0],[1,0.5,0,0,0]];arcSize=50;fontFamily=Helvetica;fontSize=11;fontColor=default;dashed=1;textOpacity=50;opacity=30;fontStyle=0;labelBackgroundColor=none;" parent="q5L2Nz16qo5Y1Yb_iNLw-34" vertex="1">
          <mxGeometry x="-12" y="12.5" width="39.25" height="25" as="geometry" />
        </mxCell>
        <mxCell id="YJyth-n5b7h0G95jLWLj-9" value="reset" style="rounded=1;whiteSpace=wrap;html=1;sketch=0;points=[[0,0.5,0,0,0],[1,0.5,0,0,0]];arcSize=50;fontFamily=Helvetica;fontSize=11;fontColor=default;dashed=1;textOpacity=50;opacity=30;fontStyle=0;labelBackgroundColor=none;" parent="q5L2Nz16qo5Y1Yb_iNLw-34" vertex="1">
          <mxGeometry x="0.75" y="50" width="39.25" height="25" as="geometry" />
        </mxCell>
        <mxCell id="q5L2Nz16qo5Y1Yb_iNLw-36" style="edgeStyle=orthogonalEdgeStyle;shape=connector;curved=0;rounded=1;orthogonalLoop=1;jettySize=auto;html=1;entryX=0;entryY=0.5;entryDx=0;entryDy=0;entryPerimeter=0;strokeColor=default;strokeWidth=1;align=center;verticalAlign=middle;fontFamily=Helvetica;fontSize=11;fontColor=default;labelBackgroundColor=default;endArrow=classic;exitX=0.528;exitY=0.88;exitDx=0;exitDy=0;exitPerimeter=0;dashed=1;dashPattern=1 4;" parent="q5L2Nz16qo5Y1Yb_iNLw-1" source="q5L2Nz16qo5Y1Yb_iNLw-22" target="q5L2Nz16qo5Y1Yb_iNLw-35" edge="1">
          <mxGeometry relative="1" as="geometry">
            <Array as="points">
              <mxPoint x="979" y="395" />
            </Array>
          </mxGeometry>
        </mxCell>
        <mxCell id="q5L2Nz16qo5Y1Yb_iNLw-37" value="@" style="rounded=1;sketch=0;container=1;recursiveResize=0;verticalAlign=top;arcSize=6;fontStyle=0;autosize=0;points=[];absoluteArcSize=1;shadow=0;strokeColor=#9673a6;fillColor=#e1d5e7;fontFamily=Helvetica;fontSize=11;dashed=1;opacity=30;align=right;labelBackgroundColor=none;" parent="q5L2Nz16qo5Y1Yb_iNLw-1" vertex="1">
          <mxGeometry x="1000" y="410" width="40" height="62.5" as="geometry">
            <mxRectangle x="-98" y="-1230" width="99" height="26" as="alternateBounds" />
          </mxGeometry>
        </mxCell>
        <mxCell id="q5L2Nz16qo5Y1Yb_iNLw-38" value="" style="rounded=1;whiteSpace=wrap;html=1;sketch=0;points=[[0,0.5,0,0,0],[1,0.5,0,0,0]];arcSize=50;fontFamily=Helvetica;fontSize=11;fontColor=default;dashed=1;textOpacity=50;opacity=30;fontStyle=0;labelBackgroundColor=none;" parent="q5L2Nz16qo5Y1Yb_iNLw-37" vertex="1">
          <mxGeometry x="-12" y="12.5" width="39.25" height="25" as="geometry" />
        </mxCell>
        <mxCell id="YJyth-n5b7h0G95jLWLj-8" value="reset" style="rounded=1;whiteSpace=wrap;html=1;sketch=0;points=[[0,0.5,0,0,0],[1,0.5,0,0,0]];arcSize=50;fontFamily=Helvetica;fontSize=11;fontColor=default;dashed=1;textOpacity=50;opacity=30;fontStyle=0;labelBackgroundColor=none;" parent="q5L2Nz16qo5Y1Yb_iNLw-37" vertex="1">
          <mxGeometry x="0.75" y="50" width="39.25" height="25" as="geometry" />
        </mxCell>
        <mxCell id="q5L2Nz16qo5Y1Yb_iNLw-39" value="@" style="rounded=1;sketch=0;container=1;recursiveResize=0;verticalAlign=top;arcSize=6;fontStyle=0;autosize=0;points=[];absoluteArcSize=1;shadow=0;strokeColor=#9673a6;fillColor=#e1d5e7;fontFamily=Helvetica;fontSize=11;dashed=1;opacity=30;align=right;labelBackgroundColor=none;" parent="q5L2Nz16qo5Y1Yb_iNLw-1" vertex="1">
          <mxGeometry x="950" y="450" width="40" height="55" as="geometry">
            <mxRectangle x="-98" y="-1230" width="99" height="26" as="alternateBounds" />
          </mxGeometry>
        </mxCell>
        <mxCell id="q5L2Nz16qo5Y1Yb_iNLw-40" value="" style="rounded=1;whiteSpace=wrap;html=1;sketch=0;points=[[0,0.5,0,0,0],[1,0.5,0,0,0]];arcSize=50;fontFamily=Helvetica;fontSize=11;fontColor=default;dashed=1;textOpacity=50;opacity=30;fontStyle=0;labelBackgroundColor=none;" parent="q5L2Nz16qo5Y1Yb_iNLw-39" vertex="1">
          <mxGeometry x="-12" y="12.5" width="39.25" height="25" as="geometry" />
        </mxCell>
        <mxCell id="YJyth-n5b7h0G95jLWLj-7" value="reset" style="rounded=1;whiteSpace=wrap;html=1;sketch=0;points=[[0,0.5,0,0,0],[1,0.5,0,0,0]];arcSize=50;fontFamily=Helvetica;fontSize=11;fontColor=default;dashed=1;textOpacity=50;opacity=30;fontStyle=0;labelBackgroundColor=none;" parent="q5L2Nz16qo5Y1Yb_iNLw-39" vertex="1">
          <mxGeometry y="37.5" width="39.25" height="25" as="geometry" />
        </mxCell>
        <mxCell id="q5L2Nz16qo5Y1Yb_iNLw-41" value="@" style="rounded=1;sketch=0;container=1;recursiveResize=0;verticalAlign=top;arcSize=6;fontStyle=0;autosize=0;points=[];absoluteArcSize=1;shadow=0;strokeColor=#9673a6;fillColor=#e1d5e7;fontFamily=Helvetica;fontSize=11;dashed=1;opacity=30;align=right;labelBackgroundColor=none;" parent="q5L2Nz16qo5Y1Yb_iNLw-1" vertex="1">
          <mxGeometry x="900" y="490" width="40" height="62.5" as="geometry">
            <mxRectangle x="-98" y="-1230" width="99" height="26" as="alternateBounds" />
          </mxGeometry>
        </mxCell>
        <mxCell id="q5L2Nz16qo5Y1Yb_iNLw-42" value="" style="rounded=1;whiteSpace=wrap;html=1;sketch=0;points=[[0,0.5,0,0,0],[1,0.5,0,0,0]];arcSize=50;fontFamily=Helvetica;fontSize=11;fontColor=default;dashed=1;textOpacity=50;opacity=30;fontStyle=0;labelBackgroundColor=none;" parent="q5L2Nz16qo5Y1Yb_iNLw-41" vertex="1">
          <mxGeometry x="-12" y="12.5" width="39.25" height="25" as="geometry" />
        </mxCell>
        <mxCell id="YJyth-n5b7h0G95jLWLj-6" value="reset" style="rounded=1;whiteSpace=wrap;html=1;sketch=0;points=[[0,0.5,0,0,0],[1,0.5,0,0,0]];arcSize=50;fontFamily=Helvetica;fontSize=11;fontColor=default;dashed=1;textOpacity=50;opacity=30;fontStyle=0;labelBackgroundColor=none;" parent="q5L2Nz16qo5Y1Yb_iNLw-41" vertex="1">
          <mxGeometry y="50" width="39.25" height="25" as="geometry" />
        </mxCell>
        <mxCell id="q5L2Nz16qo5Y1Yb_iNLw-43" value="@" style="rounded=1;sketch=0;container=1;recursiveResize=0;verticalAlign=top;arcSize=6;fontStyle=0;autosize=0;points=[];absoluteArcSize=1;shadow=0;strokeColor=#9673a6;fillColor=#e1d5e7;fontFamily=Helvetica;fontSize=11;dashed=1;opacity=30;align=right;labelBackgroundColor=none;" parent="q5L2Nz16qo5Y1Yb_iNLw-1" vertex="1">
          <mxGeometry x="840" y="520" width="40" height="55" as="geometry">
            <mxRectangle x="-98" y="-1230" width="99" height="26" as="alternateBounds" />
          </mxGeometry>
        </mxCell>
        <mxCell id="q5L2Nz16qo5Y1Yb_iNLw-44" value="" style="rounded=1;whiteSpace=wrap;html=1;sketch=0;points=[[0,0.5,0,0,0],[1,0.5,0,0,0]];arcSize=50;fontFamily=Helvetica;fontSize=11;fontColor=default;dashed=1;textOpacity=50;opacity=30;fontStyle=0;labelBackgroundColor=none;" parent="q5L2Nz16qo5Y1Yb_iNLw-43" vertex="1">
          <mxGeometry x="-12" y="12.5" width="39.25" height="25" as="geometry" />
        </mxCell>
        <mxCell id="YJyth-n5b7h0G95jLWLj-5" value="reset" style="rounded=1;whiteSpace=wrap;html=1;sketch=0;points=[[0,0.5,0,0,0],[1,0.5,0,0,0]];arcSize=50;fontFamily=Helvetica;fontSize=11;fontColor=default;dashed=1;textOpacity=50;opacity=30;fontStyle=0;labelBackgroundColor=none;" parent="q5L2Nz16qo5Y1Yb_iNLw-43" vertex="1">
          <mxGeometry x="0.75" y="37.5" width="39.25" height="25" as="geometry" />
        </mxCell>
        <mxCell id="q5L2Nz16qo5Y1Yb_iNLw-45" value="@" style="rounded=1;sketch=0;container=1;recursiveResize=0;verticalAlign=top;arcSize=6;fontStyle=0;autosize=0;points=[];absoluteArcSize=1;shadow=0;strokeColor=#9673a6;fillColor=#e1d5e7;fontFamily=Helvetica;fontSize=11;dashed=1;opacity=30;align=right;labelBackgroundColor=none;" parent="q5L2Nz16qo5Y1Yb_iNLw-1" vertex="1">
          <mxGeometry x="490" y="370" width="40" height="62.5" as="geometry">
            <mxRectangle x="-98" y="-1230" width="99" height="26" as="alternateBounds" />
          </mxGeometry>
        </mxCell>
        <mxCell id="q5L2Nz16qo5Y1Yb_iNLw-46" value="" style="rounded=1;whiteSpace=wrap;html=1;sketch=0;points=[[0,0.5,0,0,0],[1,0.5,0,0,0]];arcSize=50;fontFamily=Helvetica;fontSize=11;fontColor=default;dashed=1;textOpacity=50;opacity=30;fontStyle=0;labelBackgroundColor=none;" parent="q5L2Nz16qo5Y1Yb_iNLw-45" vertex="1">
          <mxGeometry x="10.75" y="13" width="39.25" height="25" as="geometry" />
        </mxCell>
        <mxCell id="YJyth-n5b7h0G95jLWLj-0" value="reset" style="rounded=1;whiteSpace=wrap;html=1;sketch=0;points=[[0,0.5,0,0,0],[1,0.5,0,0,0]];arcSize=50;fontFamily=Helvetica;fontSize=11;fontColor=default;dashed=1;textOpacity=50;opacity=30;fontStyle=0;labelBackgroundColor=none;" parent="q5L2Nz16qo5Y1Yb_iNLw-45" vertex="1">
          <mxGeometry y="50" width="39.25" height="25" as="geometry" />
        </mxCell>
        <mxCell id="q5L2Nz16qo5Y1Yb_iNLw-47" style="edgeStyle=orthogonalEdgeStyle;shape=connector;curved=0;rounded=1;orthogonalLoop=1;jettySize=auto;html=1;entryX=0;entryY=0.5;entryDx=0;entryDy=0;entryPerimeter=0;dashed=1;dashPattern=1 4;strokeColor=default;strokeWidth=1;align=center;verticalAlign=middle;fontFamily=Helvetica;fontSize=11;fontColor=default;labelBackgroundColor=default;endArrow=classic;" parent="q5L2Nz16qo5Y1Yb_iNLw-1" source="q5L2Nz16qo5Y1Yb_iNLw-21" target="q5L2Nz16qo5Y1Yb_iNLw-38" edge="1">
          <mxGeometry relative="1" as="geometry">
            <Array as="points">
              <mxPoint x="940" y="435" />
            </Array>
          </mxGeometry>
        </mxCell>
        <mxCell id="q5L2Nz16qo5Y1Yb_iNLw-48" style="edgeStyle=orthogonalEdgeStyle;shape=connector;curved=0;rounded=1;orthogonalLoop=1;jettySize=auto;html=1;entryX=0;entryY=0.5;entryDx=0;entryDy=0;entryPerimeter=0;dashed=1;dashPattern=1 4;strokeColor=default;strokeWidth=1;align=center;verticalAlign=middle;fontFamily=Helvetica;fontSize=11;fontColor=default;labelBackgroundColor=default;endArrow=classic;" parent="q5L2Nz16qo5Y1Yb_iNLw-1" source="q5L2Nz16qo5Y1Yb_iNLw-23" target="q5L2Nz16qo5Y1Yb_iNLw-40" edge="1">
          <mxGeometry relative="1" as="geometry">
            <Array as="points">
              <mxPoint x="890" y="475" />
            </Array>
          </mxGeometry>
        </mxCell>
        <mxCell id="q5L2Nz16qo5Y1Yb_iNLw-49" style="edgeStyle=orthogonalEdgeStyle;shape=connector;curved=0;rounded=1;orthogonalLoop=1;jettySize=auto;html=1;entryX=0;entryY=0.5;entryDx=0;entryDy=0;entryPerimeter=0;dashed=1;dashPattern=1 4;strokeColor=default;strokeWidth=1;align=center;verticalAlign=middle;fontFamily=Helvetica;fontSize=11;fontColor=default;labelBackgroundColor=default;endArrow=classic;" parent="q5L2Nz16qo5Y1Yb_iNLw-1" source="q5L2Nz16qo5Y1Yb_iNLw-24" target="q5L2Nz16qo5Y1Yb_iNLw-42" edge="1">
          <mxGeometry relative="1" as="geometry">
            <Array as="points">
              <mxPoint x="850" y="515" />
            </Array>
          </mxGeometry>
        </mxCell>
        <mxCell id="q5L2Nz16qo5Y1Yb_iNLw-50" style="edgeStyle=orthogonalEdgeStyle;shape=connector;curved=0;rounded=1;orthogonalLoop=1;jettySize=auto;html=1;entryX=0;entryY=0.5;entryDx=0;entryDy=0;entryPerimeter=0;dashed=1;dashPattern=1 4;strokeColor=default;strokeWidth=1;align=center;verticalAlign=middle;fontFamily=Helvetica;fontSize=11;fontColor=default;labelBackgroundColor=default;endArrow=classic;" parent="q5L2Nz16qo5Y1Yb_iNLw-1" source="q5L2Nz16qo5Y1Yb_iNLw-25" target="q5L2Nz16qo5Y1Yb_iNLw-44" edge="1">
          <mxGeometry relative="1" as="geometry">
            <Array as="points">
              <mxPoint x="800" y="545" />
            </Array>
          </mxGeometry>
        </mxCell>
        <mxCell id="q5L2Nz16qo5Y1Yb_iNLw-51" value="@" style="rounded=1;sketch=0;container=1;recursiveResize=0;verticalAlign=top;arcSize=6;fontStyle=0;autosize=0;points=[];absoluteArcSize=1;shadow=0;strokeColor=#9673a6;fillColor=#e1d5e7;fontFamily=Helvetica;fontSize=11;dashed=1;opacity=30;align=right;labelBackgroundColor=none;" parent="q5L2Nz16qo5Y1Yb_iNLw-1" vertex="1">
          <mxGeometry x="540" y="410" width="40" height="62.5" as="geometry">
            <mxRectangle x="-98" y="-1230" width="99" height="26" as="alternateBounds" />
          </mxGeometry>
        </mxCell>
        <mxCell id="q5L2Nz16qo5Y1Yb_iNLw-52" value="" style="rounded=1;whiteSpace=wrap;html=1;sketch=0;points=[[0,0.5,0,0,0],[1,0.5,0,0,0]];arcSize=50;fontFamily=Helvetica;fontSize=11;fontColor=default;dashed=1;textOpacity=50;opacity=30;fontStyle=0;labelBackgroundColor=none;" parent="q5L2Nz16qo5Y1Yb_iNLw-51" vertex="1">
          <mxGeometry x="10.75" y="13" width="39.25" height="25" as="geometry" />
        </mxCell>
        <mxCell id="YJyth-n5b7h0G95jLWLj-1" value="reset" style="rounded=1;whiteSpace=wrap;html=1;sketch=0;points=[[0,0.5,0,0,0],[1,0.5,0,0,0]];arcSize=50;fontFamily=Helvetica;fontSize=11;fontColor=default;dashed=1;textOpacity=50;opacity=30;fontStyle=0;labelBackgroundColor=none;" parent="q5L2Nz16qo5Y1Yb_iNLw-51" vertex="1">
          <mxGeometry x="0.75" y="50" width="39.25" height="25" as="geometry" />
        </mxCell>
        <mxCell id="q5L2Nz16qo5Y1Yb_iNLw-53" value="@" style="rounded=1;sketch=0;container=1;recursiveResize=0;verticalAlign=top;arcSize=6;fontStyle=0;autosize=0;points=[];absoluteArcSize=1;shadow=0;strokeColor=#9673a6;fillColor=#e1d5e7;fontFamily=Helvetica;fontSize=11;dashed=1;opacity=30;align=right;labelBackgroundColor=none;" parent="q5L2Nz16qo5Y1Yb_iNLw-1" vertex="1">
          <mxGeometry x="590" y="447.5" width="43.25" height="57.5" as="geometry">
            <mxRectangle x="-98" y="-1230" width="99" height="26" as="alternateBounds" />
          </mxGeometry>
        </mxCell>
        <mxCell id="q5L2Nz16qo5Y1Yb_iNLw-54" value="" style="rounded=1;whiteSpace=wrap;html=1;sketch=0;points=[[0,0.5,0,0,0],[1,0.5,0,0,0]];arcSize=50;fontFamily=Helvetica;fontSize=11;fontColor=default;dashed=1;textOpacity=50;opacity=30;fontStyle=0;labelBackgroundColor=none;" parent="q5L2Nz16qo5Y1Yb_iNLw-53" vertex="1">
          <mxGeometry x="10.75" y="13" width="39.25" height="25" as="geometry" />
        </mxCell>
        <mxCell id="YJyth-n5b7h0G95jLWLj-2" value="reset" style="rounded=1;whiteSpace=wrap;html=1;sketch=0;points=[[0,0.5,0,0,0],[1,0.5,0,0,0]];arcSize=50;fontFamily=Helvetica;fontSize=11;fontColor=default;dashed=1;textOpacity=50;opacity=30;fontStyle=0;labelBackgroundColor=none;" parent="q5L2Nz16qo5Y1Yb_iNLw-53" vertex="1">
          <mxGeometry x="2" y="38" width="39.25" height="25" as="geometry" />
        </mxCell>
        <mxCell id="q5L2Nz16qo5Y1Yb_iNLw-55" value="@" style="rounded=1;sketch=0;container=1;recursiveResize=0;verticalAlign=top;arcSize=6;fontStyle=0;autosize=0;points=[];absoluteArcSize=1;shadow=0;strokeColor=#9673a6;fillColor=#e1d5e7;fontFamily=Helvetica;fontSize=11;dashed=1;opacity=30;align=right;labelBackgroundColor=none;" parent="q5L2Nz16qo5Y1Yb_iNLw-1" vertex="1">
          <mxGeometry x="640" y="480" width="40" height="63" as="geometry">
            <mxRectangle x="-98" y="-1230" width="99" height="26" as="alternateBounds" />
          </mxGeometry>
        </mxCell>
        <mxCell id="q5L2Nz16qo5Y1Yb_iNLw-56" value="" style="rounded=1;whiteSpace=wrap;html=1;sketch=0;points=[[0,0.5,0,0,0],[1,0.5,0,0,0]];arcSize=50;fontFamily=Helvetica;fontSize=11;fontColor=default;dashed=1;textOpacity=50;opacity=30;fontStyle=0;labelBackgroundColor=none;" parent="q5L2Nz16qo5Y1Yb_iNLw-55" vertex="1">
          <mxGeometry x="10.75" y="13" width="39.25" height="25" as="geometry" />
        </mxCell>
        <mxCell id="YJyth-n5b7h0G95jLWLj-3" value="reset" style="rounded=1;whiteSpace=wrap;html=1;sketch=0;points=[[0,0.5,0,0,0],[1,0.5,0,0,0]];arcSize=50;fontFamily=Helvetica;fontSize=11;fontColor=default;dashed=1;textOpacity=50;opacity=30;fontStyle=0;labelBackgroundColor=none;" parent="q5L2Nz16qo5Y1Yb_iNLw-55" vertex="1">
          <mxGeometry y="50" width="39.25" height="25" as="geometry" />
        </mxCell>
        <mxCell id="q5L2Nz16qo5Y1Yb_iNLw-57" value="@" style="rounded=1;sketch=0;container=1;recursiveResize=0;verticalAlign=top;arcSize=6;fontStyle=0;autosize=0;points=[];absoluteArcSize=1;shadow=0;strokeColor=#9673a6;fillColor=#e1d5e7;fontFamily=Helvetica;fontSize=11;dashed=1;opacity=30;align=right;labelBackgroundColor=none;" parent="q5L2Nz16qo5Y1Yb_iNLw-1" vertex="1">
          <mxGeometry x="686.75" y="520" width="40" height="63" as="geometry">
            <mxRectangle x="-98" y="-1230" width="99" height="26" as="alternateBounds" />
          </mxGeometry>
        </mxCell>
        <mxCell id="q5L2Nz16qo5Y1Yb_iNLw-58" value="" style="rounded=1;whiteSpace=wrap;html=1;sketch=0;points=[[0,0.5,0,0,0],[1,0.5,0,0,0]];arcSize=50;fontFamily=Helvetica;fontSize=11;fontColor=default;dashed=1;textOpacity=50;opacity=30;fontStyle=0;labelBackgroundColor=none;" parent="q5L2Nz16qo5Y1Yb_iNLw-57" vertex="1">
          <mxGeometry x="10.75" y="13" width="39.25" height="25" as="geometry" />
        </mxCell>
        <mxCell id="YJyth-n5b7h0G95jLWLj-4" value="reset" style="rounded=1;whiteSpace=wrap;html=1;sketch=0;points=[[0,0.5,0,0,0],[1,0.5,0,0,0]];arcSize=50;fontFamily=Helvetica;fontSize=11;fontColor=default;dashed=1;textOpacity=50;opacity=30;fontStyle=0;labelBackgroundColor=none;" parent="q5L2Nz16qo5Y1Yb_iNLw-57" vertex="1">
          <mxGeometry y="50" width="39.25" height="25" as="geometry" />
        </mxCell>
        <mxCell id="q5L2Nz16qo5Y1Yb_iNLw-59" style="edgeStyle=orthogonalEdgeStyle;shape=connector;curved=0;rounded=1;orthogonalLoop=1;jettySize=auto;html=1;entryX=1;entryY=0.5;entryDx=0;entryDy=0;entryPerimeter=0;dashed=1;dashPattern=1 4;strokeColor=default;strokeWidth=1;align=center;verticalAlign=middle;fontFamily=Helvetica;fontSize=11;fontColor=default;labelBackgroundColor=default;endArrow=classic;" parent="q5L2Nz16qo5Y1Yb_iNLw-1" source="q5L2Nz16qo5Y1Yb_iNLw-30" target="q5L2Nz16qo5Y1Yb_iNLw-46" edge="1">
          <mxGeometry relative="1" as="geometry">
            <Array as="points">
              <mxPoint x="575" y="396" />
            </Array>
          </mxGeometry>
        </mxCell>
        <mxCell id="q5L2Nz16qo5Y1Yb_iNLw-61" style="edgeStyle=orthogonalEdgeStyle;shape=connector;curved=0;rounded=1;orthogonalLoop=1;jettySize=auto;html=1;entryX=1;entryY=0.5;entryDx=0;entryDy=0;entryPerimeter=0;dashed=1;dashPattern=1 4;strokeColor=default;strokeWidth=1;align=center;verticalAlign=middle;fontFamily=Helvetica;fontSize=11;fontColor=default;labelBackgroundColor=default;endArrow=classic;" parent="q5L2Nz16qo5Y1Yb_iNLw-1" source="q5L2Nz16qo5Y1Yb_iNLw-28" target="q5L2Nz16qo5Y1Yb_iNLw-54" edge="1">
          <mxGeometry relative="1" as="geometry">
            <Array as="points">
              <mxPoint x="670" y="473" />
            </Array>
          </mxGeometry>
        </mxCell>
        <mxCell id="q5L2Nz16qo5Y1Yb_iNLw-62" style="edgeStyle=orthogonalEdgeStyle;shape=connector;curved=0;rounded=1;orthogonalLoop=1;jettySize=auto;html=1;entryX=1;entryY=0.5;entryDx=0;entryDy=0;entryPerimeter=0;dashed=1;dashPattern=1 4;strokeColor=default;strokeWidth=1;align=center;verticalAlign=middle;fontFamily=Helvetica;fontSize=11;fontColor=default;labelBackgroundColor=default;endArrow=classic;" parent="q5L2Nz16qo5Y1Yb_iNLw-1" source="q5L2Nz16qo5Y1Yb_iNLw-27" target="q5L2Nz16qo5Y1Yb_iNLw-56" edge="1">
          <mxGeometry relative="1" as="geometry">
            <Array as="points">
              <mxPoint x="710" y="506" />
            </Array>
          </mxGeometry>
        </mxCell>
        <mxCell id="q5L2Nz16qo5Y1Yb_iNLw-63" style="edgeStyle=orthogonalEdgeStyle;shape=connector;curved=0;rounded=1;orthogonalLoop=1;jettySize=auto;html=1;entryX=1;entryY=0.5;entryDx=0;entryDy=0;entryPerimeter=0;dashed=1;dashPattern=1 4;strokeColor=default;strokeWidth=1;align=center;verticalAlign=middle;fontFamily=Helvetica;fontSize=11;fontColor=default;labelBackgroundColor=default;endArrow=classic;" parent="q5L2Nz16qo5Y1Yb_iNLw-1" source="q5L2Nz16qo5Y1Yb_iNLw-26" target="q5L2Nz16qo5Y1Yb_iNLw-58" edge="1">
          <mxGeometry relative="1" as="geometry">
            <Array as="points">
              <mxPoint x="760" y="546" />
            </Array>
          </mxGeometry>
        </mxCell>
        <mxCell id="YJyth-n5b7h0G95jLWLj-26" style="edgeStyle=orthogonalEdgeStyle;shape=connector;curved=0;rounded=1;orthogonalLoop=1;jettySize=auto;html=1;exitX=1;exitY=0.5;exitDx=0;exitDy=0;exitPerimeter=0;entryX=0;entryY=0.5;entryDx=0;entryDy=0;entryPerimeter=0;strokeColor=default;align=center;verticalAlign=middle;fontFamily=Helvetica;fontSize=11;fontColor=default;labelBackgroundColor=default;endArrow=classic;strokeWidth=2;" parent="q5L2Nz16qo5Y1Yb_iNLw-1" source="q5L2Nz16qo5Y1Yb_iNLw-11" target="YJyth-n5b7h0G95jLWLj-22" edge="1">
          <mxGeometry relative="1" as="geometry" />
        </mxCell>
        <mxCell id="YJyth-n5b7h0G95jLWLj-27" style="edgeStyle=orthogonalEdgeStyle;shape=connector;curved=0;rounded=1;orthogonalLoop=1;jettySize=auto;html=1;exitX=1;exitY=0.5;exitDx=0;exitDy=0;exitPerimeter=0;entryX=0;entryY=0.5;entryDx=0;entryDy=0;entryPerimeter=0;strokeColor=default;align=center;verticalAlign=middle;fontFamily=Helvetica;fontSize=11;fontColor=default;labelBackgroundColor=default;endArrow=classic;strokeWidth=2;" parent="q5L2Nz16qo5Y1Yb_iNLw-1" source="q5L2Nz16qo5Y1Yb_iNLw-11" target="YJyth-n5b7h0G95jLWLj-24" edge="1">
          <mxGeometry relative="1" as="geometry" />
        </mxCell>
        <mxCell id="YJyth-n5b7h0G95jLWLj-21" value="1then2" style="rounded=1;whiteSpace=wrap;html=1;container=1;recursiveResize=0;verticalAlign=top;arcSize=6;fontStyle=1;autosize=0;points=[];absoluteArcSize=1;shadow=1;strokeColor=#6c8ebf;fillColor=#dae8fc;fontFamily=Helvetica;fontSize=11;gradientColor=#0050EF;fontColor=default;" parent="q5L2Nz16qo5Y1Yb_iNLw-1" vertex="1">
          <mxGeometry x="360" y="70" width="90" height="100" as="geometry">
            <mxRectangle x="-98" y="-1230" width="99" height="26" as="alternateBounds" />
          </mxGeometry>
        </mxCell>
        <mxCell id="YJyth-n5b7h0G95jLWLj-22" value="1" style="rounded=1;whiteSpace=wrap;html=1;sketch=0;points=[[0,0.5,0,0,0],[1,0.5,0,0,0]];arcSize=50;fontFamily=Helvetica;fontSize=11;fontColor=default;" parent="YJyth-n5b7h0G95jLWLj-21" vertex="1">
          <mxGeometry x="-16.75" y="27.5" width="36.75" height="25" as="geometry" />
        </mxCell>
        <mxCell id="YJyth-n5b7h0G95jLWLj-23" value="2" style="rounded=1;whiteSpace=wrap;html=1;sketch=0;points=[[0,0.5,0,0,0],[1,0.5,0,0,0]];fillColor=#1ba1e2;fontColor=#ffffff;strokeColor=#006EAF;arcSize=50;fontFamily=Helvetica;fontSize=11;" parent="YJyth-n5b7h0G95jLWLj-21" vertex="1">
          <mxGeometry x="70" y="27.5" width="36" height="25" as="geometry" />
        </mxCell>
        <mxCell id="YJyth-n5b7h0G95jLWLj-24" value="2" style="rounded=1;whiteSpace=wrap;html=1;sketch=0;points=[[0,0.5,0,0,0],[1,0.5,0,0,0]];arcSize=50;fontFamily=Helvetica;fontSize=11;fontColor=default;" parent="YJyth-n5b7h0G95jLWLj-21" vertex="1">
          <mxGeometry x="-16.75" y="60" width="36.75" height="25" as="geometry" />
        </mxCell>
        <mxCell id="YJyth-n5b7h0G95jLWLj-25" value="1" style="rounded=1;whiteSpace=wrap;html=1;sketch=0;points=[[0,0.5,0,0,0],[1,0.5,0,0,0]];fillColor=#1ba1e2;fontColor=#ffffff;strokeColor=#006EAF;arcSize=50;fontFamily=Helvetica;fontSize=11;" parent="YJyth-n5b7h0G95jLWLj-21" vertex="1">
          <mxGeometry x="70" y="60" width="36" height="25" as="geometry" />
        </mxCell>
        <mxCell id="YJyth-n5b7h0G95jLWLj-52" value="Disable" style="rounded=1;whiteSpace=wrap;html=1;container=1;recursiveResize=0;verticalAlign=middle;arcSize=6;fontStyle=1;autosize=0;points=[];absoluteArcSize=1;shadow=1;strokeColor=#6c8ebf;fillColor=#dae8fc;fontFamily=Helvetica;fontSize=11;gradientColor=#0050EF;fontColor=default;rotation=0;" parent="q5L2Nz16qo5Y1Yb_iNLw-1" vertex="1">
          <mxGeometry x="600" y="720" width="340" height="60" as="geometry">
            <mxRectangle x="-98" y="-1230" width="99" height="26" as="alternateBounds" />
          </mxGeometry>
        </mxCell>
        <mxCell id="YJyth-n5b7h0G95jLWLj-53" value="8" style="rounded=1;whiteSpace=wrap;html=1;sketch=0;points=[[0,0.5,0,0,0],[1,0.5,0,0,0]];fillColor=#1ba1e2;fontColor=#ffffff;strokeColor=#006EAF;arcSize=50;fontFamily=Helvetica;fontSize=11;rotation=90;" parent="YJyth-n5b7h0G95jLWLj-52" vertex="1">
          <mxGeometry x="270" y="-10" width="36" height="25" as="geometry" />
        </mxCell>
        <mxCell id="YJyth-n5b7h0G95jLWLj-54" value="9" style="rounded=1;whiteSpace=wrap;html=1;sketch=0;points=[[0,0.5,0,0,0],[1,0.5,0,0,0]];fillColor=#1ba1e2;fontColor=#ffffff;strokeColor=#006EAF;arcSize=50;fontFamily=Helvetica;fontSize=11;rotation=90;" parent="YJyth-n5b7h0G95jLWLj-52" vertex="1">
          <mxGeometry x="300" y="-10" width="36" height="25" as="geometry" />
        </mxCell>
        <mxCell id="YJyth-n5b7h0G95jLWLj-56" value="6" style="rounded=1;whiteSpace=wrap;html=1;sketch=0;points=[[0,0.5,0,0,0],[1,0.5,0,0,0]];fillColor=#1ba1e2;fontColor=#ffffff;strokeColor=#006EAF;arcSize=50;fontFamily=Helvetica;fontSize=11;rotation=90;" parent="YJyth-n5b7h0G95jLWLj-52" vertex="1">
          <mxGeometry x="210" y="-10" width="36" height="25" as="geometry" />
        </mxCell>
        <mxCell id="YJyth-n5b7h0G95jLWLj-57" value="5" style="rounded=1;whiteSpace=wrap;html=1;sketch=0;points=[[0,0.5,0,0,0],[1,0.5,0,0,0]];fillColor=#1ba1e2;fontColor=#ffffff;strokeColor=#006EAF;arcSize=50;fontFamily=Helvetica;fontSize=11;rotation=90;" parent="YJyth-n5b7h0G95jLWLj-52" vertex="1">
          <mxGeometry x="180" y="-10" width="36" height="25" as="geometry" />
        </mxCell>
        <mxCell id="YJyth-n5b7h0G95jLWLj-58" value="4" style="rounded=1;whiteSpace=wrap;html=1;sketch=0;points=[[0,0.5,0,0,0],[1,0.5,0,0,0]];fillColor=#1ba1e2;fontColor=#ffffff;strokeColor=#006EAF;arcSize=50;fontFamily=Helvetica;fontSize=11;rotation=90;" parent="YJyth-n5b7h0G95jLWLj-52" vertex="1">
          <mxGeometry x="150" y="-10" width="36" height="25" as="geometry" />
        </mxCell>
        <mxCell id="YJyth-n5b7h0G95jLWLj-59" value="3" style="rounded=1;whiteSpace=wrap;html=1;sketch=0;points=[[0,0.5,0,0,0],[1,0.5,0,0,0]];fillColor=#1ba1e2;fontColor=#ffffff;strokeColor=#006EAF;arcSize=50;fontFamily=Helvetica;fontSize=11;rotation=90;" parent="YJyth-n5b7h0G95jLWLj-52" vertex="1">
          <mxGeometry x="120" y="-10" width="36" height="25" as="geometry" />
        </mxCell>
        <mxCell id="YJyth-n5b7h0G95jLWLj-60" value="2" style="rounded=1;whiteSpace=wrap;html=1;sketch=0;points=[[0,0.5,0,0,0],[1,0.5,0,0,0]];fillColor=#1ba1e2;fontColor=#ffffff;strokeColor=#006EAF;arcSize=50;fontFamily=Helvetica;fontSize=11;rotation=90;" parent="YJyth-n5b7h0G95jLWLj-52" vertex="1">
          <mxGeometry x="90" y="-10" width="36" height="25" as="geometry" />
        </mxCell>
        <mxCell id="YJyth-n5b7h0G95jLWLj-61" value="1" style="rounded=1;whiteSpace=wrap;html=1;sketch=0;points=[[0,0.5,0,0,0],[1,0.5,0,0,0]];fillColor=#1ba1e2;fontColor=#ffffff;strokeColor=#006EAF;arcSize=50;fontFamily=Helvetica;fontSize=11;rotation=90;" parent="YJyth-n5b7h0G95jLWLj-52" vertex="1">
          <mxGeometry x="60" y="-10" width="36" height="25" as="geometry" />
        </mxCell>
        <mxCell id="YJyth-n5b7h0G95jLWLj-62" value="0" style="rounded=1;whiteSpace=wrap;html=1;sketch=0;points=[[0,0.5,0,0,0],[1,0.5,0,0,0]];fillColor=#1ba1e2;fontColor=#ffffff;strokeColor=#006EAF;arcSize=50;fontFamily=Helvetica;fontSize=11;rotation=90;" parent="YJyth-n5b7h0G95jLWLj-52" vertex="1">
          <mxGeometry x="30" y="-10" width="36" height="25" as="geometry" />
        </mxCell>
        <mxCell id="YJyth-n5b7h0G95jLWLj-55" value="7" style="rounded=1;whiteSpace=wrap;html=1;sketch=0;points=[[0,0.5,0,0,0],[1,0.5,0,0,0]];fillColor=#1ba1e2;fontColor=#ffffff;strokeColor=#006EAF;arcSize=50;fontFamily=Helvetica;fontSize=11;rotation=90;" parent="YJyth-n5b7h0G95jLWLj-52" vertex="1">
          <mxGeometry x="240" y="-10" width="36" height="25" as="geometry" />
        </mxCell>
        <mxCell id="YJyth-n5b7h0G95jLWLj-40" value="" style="rounded=1;whiteSpace=wrap;html=1;sketch=0;points=[[0,0.5,0,0,0],[1,0.5,0,0,0]];arcSize=50;fontFamily=Helvetica;fontSize=11;fontColor=default;" parent="YJyth-n5b7h0G95jLWLj-52" vertex="1">
          <mxGeometry x="-20" y="17.5" width="36.75" height="25" as="geometry" />
        </mxCell>
        <mxCell id="YJyth-n5b7h0G95jLWLj-66" style="edgeStyle=orthogonalEdgeStyle;shape=connector;curved=0;rounded=1;orthogonalLoop=1;jettySize=auto;html=1;exitX=0;exitY=0.5;exitDx=0;exitDy=0;exitPerimeter=0;entryX=0.561;entryY=0.96;entryDx=0;entryDy=0;entryPerimeter=0;dashed=1;strokeColor=default;align=center;verticalAlign=middle;fontFamily=Helvetica;fontSize=11;fontColor=default;labelBackgroundColor=default;endArrow=classic;" parent="q5L2Nz16qo5Y1Yb_iNLw-1" source="YJyth-n5b7h0G95jLWLj-62" target="YJyth-n5b7h0G95jLWLj-0" edge="1">
          <mxGeometry relative="1" as="geometry">
            <Array as="points">
              <mxPoint x="648" y="670" />
              <mxPoint x="512" y="670" />
            </Array>
          </mxGeometry>
        </mxCell>
        <mxCell id="YJyth-n5b7h0G95jLWLj-68" style="edgeStyle=orthogonalEdgeStyle;shape=connector;curved=0;rounded=1;orthogonalLoop=1;jettySize=auto;html=1;exitX=0;exitY=0.5;exitDx=0;exitDy=0;exitPerimeter=0;entryX=0.459;entryY=1.02;entryDx=0;entryDy=0;entryPerimeter=0;dashed=1;strokeColor=default;align=center;verticalAlign=middle;fontFamily=Helvetica;fontSize=11;fontColor=default;labelBackgroundColor=default;endArrow=classic;" parent="q5L2Nz16qo5Y1Yb_iNLw-1" source="YJyth-n5b7h0G95jLWLj-60" target="YJyth-n5b7h0G95jLWLj-2" edge="1">
          <mxGeometry relative="1" as="geometry">
            <Array as="points">
              <mxPoint x="708" y="650" />
              <mxPoint x="610" y="650" />
            </Array>
          </mxGeometry>
        </mxCell>
        <mxCell id="YJyth-n5b7h0G95jLWLj-69" style="edgeStyle=orthogonalEdgeStyle;shape=connector;curved=0;rounded=1;orthogonalLoop=1;jettySize=auto;html=1;exitX=0;exitY=0.5;exitDx=0;exitDy=0;exitPerimeter=0;entryX=0.51;entryY=0.92;entryDx=0;entryDy=0;entryPerimeter=0;dashed=1;strokeColor=default;align=center;verticalAlign=middle;fontFamily=Helvetica;fontSize=11;fontColor=default;labelBackgroundColor=default;endArrow=classic;" parent="q5L2Nz16qo5Y1Yb_iNLw-1" source="YJyth-n5b7h0G95jLWLj-59" target="YJyth-n5b7h0G95jLWLj-3" edge="1">
          <mxGeometry relative="1" as="geometry">
            <Array as="points">
              <mxPoint x="738" y="640" />
              <mxPoint x="660" y="640" />
            </Array>
          </mxGeometry>
        </mxCell>
        <mxCell id="YJyth-n5b7h0G95jLWLj-70" style="edgeStyle=orthogonalEdgeStyle;shape=connector;curved=0;rounded=1;orthogonalLoop=1;jettySize=auto;html=1;exitX=0;exitY=0.5;exitDx=0;exitDy=0;exitPerimeter=0;entryX=0.516;entryY=0.96;entryDx=0;entryDy=0;entryPerimeter=0;dashed=1;strokeColor=default;align=center;verticalAlign=middle;fontFamily=Helvetica;fontSize=11;fontColor=default;labelBackgroundColor=default;endArrow=classic;" parent="q5L2Nz16qo5Y1Yb_iNLw-1" source="YJyth-n5b7h0G95jLWLj-58" target="YJyth-n5b7h0G95jLWLj-4" edge="1">
          <mxGeometry relative="1" as="geometry">
            <Array as="points">
              <mxPoint x="768" y="630" />
              <mxPoint x="707" y="630" />
            </Array>
          </mxGeometry>
        </mxCell>
        <mxCell id="YJyth-n5b7h0G95jLWLj-71" style="edgeStyle=orthogonalEdgeStyle;shape=connector;curved=0;rounded=1;orthogonalLoop=1;jettySize=auto;html=1;exitX=0;exitY=0.5;exitDx=0;exitDy=0;exitPerimeter=0;entryX=0.516;entryY=0.98;entryDx=0;entryDy=0;entryPerimeter=0;dashed=1;strokeColor=default;align=center;verticalAlign=middle;fontFamily=Helvetica;fontSize=11;fontColor=default;labelBackgroundColor=default;endArrow=classic;" parent="q5L2Nz16qo5Y1Yb_iNLw-1" source="YJyth-n5b7h0G95jLWLj-57" target="YJyth-n5b7h0G95jLWLj-5" edge="1">
          <mxGeometry relative="1" as="geometry">
            <Array as="points">
              <mxPoint x="798" y="630" />
              <mxPoint x="861" y="630" />
            </Array>
          </mxGeometry>
        </mxCell>
        <mxCell id="YJyth-n5b7h0G95jLWLj-73" style="edgeStyle=orthogonalEdgeStyle;shape=connector;curved=0;rounded=1;orthogonalLoop=1;jettySize=auto;html=1;exitX=0;exitY=0.5;exitDx=0;exitDy=0;exitPerimeter=0;entryX=0.51;entryY=0.98;entryDx=0;entryDy=0;entryPerimeter=0;dashed=1;strokeColor=default;align=center;verticalAlign=middle;fontFamily=Helvetica;fontSize=11;fontColor=default;labelBackgroundColor=default;endArrow=classic;" parent="q5L2Nz16qo5Y1Yb_iNLw-1" source="YJyth-n5b7h0G95jLWLj-55" target="YJyth-n5b7h0G95jLWLj-7" edge="1">
          <mxGeometry relative="1" as="geometry">
            <Array as="points">
              <mxPoint x="858" y="650" />
              <mxPoint x="970" y="650" />
            </Array>
          </mxGeometry>
        </mxCell>
        <mxCell id="YJyth-n5b7h0G95jLWLj-74" style="edgeStyle=orthogonalEdgeStyle;shape=connector;curved=0;rounded=1;orthogonalLoop=1;jettySize=auto;html=1;exitX=0;exitY=0.5;exitDx=0;exitDy=0;exitPerimeter=0;entryX=0.49;entryY=0.96;entryDx=0;entryDy=0;entryPerimeter=0;dashed=1;strokeColor=default;align=center;verticalAlign=middle;fontFamily=Helvetica;fontSize=11;fontColor=default;labelBackgroundColor=default;endArrow=classic;" parent="q5L2Nz16qo5Y1Yb_iNLw-1" source="YJyth-n5b7h0G95jLWLj-53" target="YJyth-n5b7h0G95jLWLj-8" edge="1">
          <mxGeometry relative="1" as="geometry">
            <Array as="points">
              <mxPoint x="888" y="660" />
              <mxPoint x="1020" y="660" />
            </Array>
          </mxGeometry>
        </mxCell>
        <mxCell id="YJyth-n5b7h0G95jLWLj-75" style="edgeStyle=orthogonalEdgeStyle;shape=connector;curved=0;rounded=1;orthogonalLoop=1;jettySize=auto;html=1;exitX=0;exitY=0.5;exitDx=0;exitDy=0;exitPerimeter=0;entryX=0.516;entryY=0.96;entryDx=0;entryDy=0;entryPerimeter=0;dashed=1;strokeColor=default;align=center;verticalAlign=middle;fontFamily=Helvetica;fontSize=11;fontColor=default;labelBackgroundColor=default;endArrow=classic;" parent="q5L2Nz16qo5Y1Yb_iNLw-1" source="YJyth-n5b7h0G95jLWLj-54" target="YJyth-n5b7h0G95jLWLj-9" edge="1">
          <mxGeometry relative="1" as="geometry">
            <Array as="points">
              <mxPoint x="918" y="670" />
              <mxPoint x="1071" y="670" />
            </Array>
          </mxGeometry>
        </mxCell>
        <mxCell id="YJyth-n5b7h0G95jLWLj-76" style="edgeStyle=orthogonalEdgeStyle;shape=connector;curved=0;rounded=1;orthogonalLoop=1;jettySize=auto;html=1;exitX=0;exitY=0.5;exitDx=0;exitDy=0;exitPerimeter=0;entryX=0.49;entryY=0.96;entryDx=0;entryDy=0;entryPerimeter=0;dashed=1;strokeColor=default;align=center;verticalAlign=middle;fontFamily=Helvetica;fontSize=11;fontColor=default;labelBackgroundColor=default;endArrow=classic;" parent="q5L2Nz16qo5Y1Yb_iNLw-1" source="YJyth-n5b7h0G95jLWLj-61" target="YJyth-n5b7h0G95jLWLj-1" edge="1">
          <mxGeometry relative="1" as="geometry">
            <Array as="points">
              <mxPoint x="678" y="660" />
              <mxPoint x="560" y="660" />
            </Array>
          </mxGeometry>
        </mxCell>
        <mxCell id="YJyth-n5b7h0G95jLWLj-77" style="edgeStyle=orthogonalEdgeStyle;shape=connector;curved=0;rounded=1;orthogonalLoop=1;jettySize=auto;html=1;exitX=0;exitY=0.5;exitDx=0;exitDy=0;exitPerimeter=0;entryX=0.51;entryY=0.92;entryDx=0;entryDy=0;entryPerimeter=0;dashed=1;strokeColor=default;align=center;verticalAlign=middle;fontFamily=Helvetica;fontSize=11;fontColor=default;labelBackgroundColor=default;endArrow=classic;" parent="q5L2Nz16qo5Y1Yb_iNLw-1" source="YJyth-n5b7h0G95jLWLj-56" target="YJyth-n5b7h0G95jLWLj-6" edge="1">
          <mxGeometry relative="1" as="geometry">
            <Array as="points">
              <mxPoint x="828" y="640" />
              <mxPoint x="920" y="640" />
            </Array>
          </mxGeometry>
        </mxCell>
        <mxCell id="YJyth-n5b7h0G95jLWLj-78" style="edgeStyle=orthogonalEdgeStyle;shape=connector;curved=0;rounded=1;orthogonalLoop=1;jettySize=auto;html=1;exitX=0.472;exitY=1;exitDx=0;exitDy=0;exitPerimeter=0;entryX=1;entryY=0.5;entryDx=0;entryDy=0;entryPerimeter=0;dashed=1;strokeColor=default;align=center;verticalAlign=middle;fontFamily=Helvetica;fontSize=11;fontColor=default;labelBackgroundColor=default;endArrow=classic;dashPattern=1 4;" parent="q5L2Nz16qo5Y1Yb_iNLw-1" source="q5L2Nz16qo5Y1Yb_iNLw-29" target="q5L2Nz16qo5Y1Yb_iNLw-52" edge="1">
          <mxGeometry relative="1" as="geometry" />
        </mxCell>
        <mxCell id="YJyth-n5b7h0G95jLWLj-79" style="edgeStyle=orthogonalEdgeStyle;shape=connector;curved=0;rounded=1;orthogonalLoop=1;jettySize=auto;html=1;exitX=1;exitY=0.5;exitDx=0;exitDy=0;exitPerimeter=0;entryX=0;entryY=0.5;entryDx=0;entryDy=0;entryPerimeter=0;dashed=1;strokeColor=default;align=center;verticalAlign=middle;fontFamily=Helvetica;fontSize=11;fontColor=default;labelBackgroundColor=default;endArrow=classic;" parent="q5L2Nz16qo5Y1Yb_iNLw-1" source="YJyth-n5b7h0G95jLWLj-25" target="YJyth-n5b7h0G95jLWLj-40" edge="1">
          <mxGeometry relative="1" as="geometry">
            <Array as="points">
              <mxPoint x="480" y="143" />
              <mxPoint x="480" y="750" />
            </Array>
          </mxGeometry>
        </mxCell>
      </root>
    </mxGraphModel>
  </diagram>
</mxfile>
